<svg viewBox="0 0 50 50" xmlns="http://www.w3.org/2000/svg" xml:space="preserve" style="fill-rule:evenodd;clip-rule:evenodd;stroke-linejoin:round;stroke-miterlimit:2"><g transform="scale(.98)"><path d="M25.2 51H25a25 25 0 0 1-24-18.4 25.4 25.4 0 0 1-.9-6.5v-22A4 4 0 0 1 4 0h27.3A19.7 19.7 0 0 1 51 19.8V47a4 4 0 0 1-4 4H25.2Z" style="fill:#fff;fill-rule:nonzero"/><path d="M47.8 11.3c-3-6-9.3-10-16.5-10H4A2.8 2.8 0 0 0 1.2 4v22a20.2 20.2 0 0 0 1 6.2 23.6 23.6 0 0 0 12.6 15.2 24 24 0 0 0 10.1 2.3H47c1.6 0 2.9-1.2 2.9-2.8V19.8c0-3-.8-6-2.1-8.5Z" style="fill:#fff;fill-rule:nonzero"/><path d="M4 28.5h.6c.2 0 .4 0 .6-.2h-.3l-.3-.2v-.2l.8-.9a8.5 8.5 0 0 1 1-.9H1.2l.1 2 .7.2 2 .2Zm-.5 7.6 1-.5H5l1 .6.5.2v-.2c.2 0 .3-.2.3-.3h.1c.2-.1.2-.3.2-.4 0 0 .2 0 .3-.2V35l.2-.4h.1l.1-.3c.2 0 .3 0 .3-.2h.2v-.2c.4 0 .6.3.9.4l.1-.1h.1l1.3 1 1.8-.3a27 27 0 0 1 5.4 0v.1l-.1.2s-.3.3-.4.7c0 .2-.3.6-.2.7l1-1h.3l.1.1c0 .2-.2.4-.3.4-1 .9-1 1-2 1.6l-1.3.6-2.7 1.3-.3.6-.4 1-.7.7s0 .1-.1 0h-.1l-.3-.9v-.2l.1-.5.7-.4A19 19 0 0 1 6.7 41a24 24 0 0 0 6.6 5.6l-.3-1c-.3-1.3-.1-1.6-.3-2v-.3l.1-.1c.3-.3 1.9 0 2.2 0l1.9.3h.6l.6-.3H18c-.2 0-.3 0-.4-.2l.1-.2.8-.8a8.5 8.5 0 0 1 1.8-1.5l1.3-.8c.3-.2.6-.4 1-.4h.4l1 .6.5.2v-.2c.2 0 .3-.2.3-.3v-.1c.2 0 .2 0 .3-.2v-6.7h-.2l-1.2 1.2c-.7.5-1.1.7-1.5.7-.4-.1-.6-.8-1-2.1-.2-1.3 0-1.6-.2-2 0 0-.1-.2 0-.4.3-.3 2 0 2.2 0l1.9.2v-4h-3.2a9 9 0 0 1-1.8.9l-2.7 1.2h-.1l-.2.6-.4 1-.7.8h-.2v-.1l-.3-.9-.1-.2c0-.1 0-.3.2-.5l.7-.4A29.5 29.5 0 0 1 10 30c-.2 0-.3.2-.3.3l-.5.7c-.2.3-.4.6-.7.7l-.3.1H8l-.6-.5-.5-.5v-.1l-.1-.3.2-.2h.2l.1-.1c-1.4-.4-2.2 0-2.5.2-.2 0-.4.3-1 .7l-1.2 1-.3.3c.3 1.3.8 2.6 1.4 3.8ZM23 44.9h-.2c-.2 0-.3.2-.3.3l-.5.8c-.2.2-.4.5-.7.6l-.3.2-.3-.2c-.2 0-.4-.2-.6-.4l-.5-.5-.1-.4.2-.1.2-.1.1-.1c-1.4-.3-2.2 0-2.5.2-.2 0-.4.3-.9.7l-1.2 1-.7.5A24 24 0 0 0 25 49.8v-5.2l-1.9.3Z" style="fill:#183c68;fill-rule:nonzero"/><path d="M31.3 1.2H26v12.5A24 24 0 0 1 32 7.5c.8-.7 1.7-1.2 2.6-1.1.7 0 1.4.5 2 1 1.6 1.3 3 3.2 4.6 4.7-1 .5-1.9 1.1-2.6 2-.3.3-.6.8-.7 1.3v.7l.5 1c.2.3.4.6.3 1-.3 2.3-2.7 3.5-4.7 4.1l-8 2.7h4l2-.8c2.6-1 6.9-2.4 7.5-5.5v-.5c0-.3 0-.7-.2-1l-.4-.6c-.4-.4-.6-1-.3-1.5.6-1.1 1.7-2 2.9-2.7l-1.3 1-1 1.1c-.3.4-.6.9-.5 1.4l.8 1.3c.2.2.3.5.3.8v.8c-.4 2-2.3 3.5-4.2 4.4l-4.2 1.8h4.2a11 11 0 0 0 4.6-4.2 5 5 0 0 0 .6-2.4c0-1-.4-1.7-1-2.3l-.4-.5v-.2l.3-.5c.5-.9 1.3-1.6 2-2.3l1.8-1c.8-.5 1.7-1 2.6-.8.6 0 1.1.2 1.6.5-3-6-9.3-10-16.5-10Z" style="fill:#f5933b;fill-rule:nonzero"/><path d="M26.1 26.1v23.7h19.7c-.3-.3-1.8-1.4-2.3-1.6.4.4.8.8 1.3 1-.8 0-1.3-.7-2-1l.5.4a5 5 0 0 1-1.7-.9l.8.7c-.3 0-.6-.2-1-.4-.1-.2-.3-.4-.6-.5l.3.2h-.7c-1.6-1-2.9-2.1-3.9-3.8l-.3-.5-.1-.2a7 7 0 0 1-.8-3.4c.1-.9.4-1.6.8-2.3.5-.6 1-1.2 1.8-1.3.5 0 .9.4 1.3.6.3.2.7.3 1 0 .4-.3.5-.9.4-1.3-.1-.6-.7-1-.8-1-.3-.2-.4 0-1.2-.4L38 34c-.4-.2-1.1-.4-2.3-.5h-3c-.1 0-5.4-.3-5.6-.6l2.6-.5 6-.9.4-.3 1.1-.3.4-.1 1.5-.2c.8 0 1.6.2 2.4.6a7 7 0 0 0 6.3 1.7l-.3.2-1.1.2-1.6-.1c1 .5 2 .7 3.1.7h1c-1.6.5-3.3 0-4.8-.5-.4-.2-1-.4-1.5-.4 1 1.1 1.2 3 .6 4.4-.3.7-.9 1.3-1.6 1.7-.8.5-2.4.7-2.8.8l-.3.2c-.3.4-.1.8.1 1.2l.5.5c.3.2.6.5 1 .6.3.2.6.2 1 .1h.3l.3-.3c.3-.2.5-.5.6-.8l1.2-2c.3-.4.7-.6 1.1-.8h.3a8 8 0 0 1 4.9.1V26.1H26.1Z" style="fill:#578e40;fill-rule:nonzero"/><path d="M12.1 2.1c.2 0 .6-.4.8-.6v-.3h-1.5l.1.3.6.6ZM1.4 8.4A4.2 4.2 0 0 1 4.6 7a5 5 0 0 1 2.3.5l2 1.5c.3.4.7.9 1.2 1.2l.2.2.1-.2-.1-.2L9 8.8a6.6 6.6 0 0 1-1.5-2A5 5 0 0 1 7.1 4c.1-1.1.6-2 1.3-2.6l.3-.2H4A2.8 2.8 0 0 0 1.2 4v4.8l.2-.4Zm.8 3.8a1.6 1.6 0 0 0-1-.9V13l.3-.1c.3-.1.6-.6.7-.6Z" style="fill:#864198;fill-rule:nonzero"/><path d="M18.5 1.2h-2.9l.3.2c.7.6 1.2 1.5 1.4 2.6.1 1 0 2-.5 2.8-.4.8-.9 1.4-1.5 2L14.1 10l-.2.2h.4L15.5 9c.6-.6 1.3-1 2-1.4a5 5 0 0 1 2.9-.5c1 .1 2 .6 2.5 1.3.6.8.9 1.8.7 2.8h-.2c-.2 0-.4.2-.5.3-.3.1-.5.3-.7.6 0 .1.4.6.7.7l.5.2h.2c.2 1.1 0 2.1-.7 2.9-.5.7-1.4 1.2-2.5 1.3h-.7a5 5 0 0 1-2.2-.5c-.7-.3-1.4-.8-2-1.4L14.3 14l-.2-.2-.2.2.2.2 1.2 1.2c.6.6 1.1 1.3 1.5 2 .4.9.6 1.9.5 2.8a4 4 0 0 1-1.4 2.6 3.5 3.5 0 0 1-2.8.7c0-.3-.1-.6-.3-.8 0-.2-.6-.6-.6-.6-.4.2-.6.4-.7.6l-.2.7a3.5 3.5 0 0 1-2.8-.6A3.8 3.8 0 0 1 7 20.3c-.1-1 0-2 .5-2.8.3-.8.8-1.4 1.5-2l1.2-1.3.1-.1-.1-.2-.2.2c-.5.3-.8.7-1.3 1.2-.6.6-1.2 1-2 1.4a5 5 0 0 1-2.8.5A4 4 0 0 1 1.4 16l-.2-.4v9.4h23.7V1.2h-6.4Z" style="fill:#864198;fill-rule:nonzero"/><circle cx="12.1" cy="13.9" r=".4" style="fill:#864198"/><circle cx="10.8" cy="13.1" r=".4" style="fill:#864198"/><circle cx="10.5" cy="11.6" r=".4" style="fill:#864198"/><circle cx="11.5" cy="10.5" r=".4" style="fill:#864198"/><circle cx="13.1" cy="10.6" r=".4" style="fill:#864198"/><circle cx="13.9" cy="11.8" r=".4" style="fill:#864198"/><circle cx="13.5" cy="13.3" r=".4" style="fill:#864198"/><circle cx="12.2" cy="11.4" r=".4" style="fill:#864198"/><circle cx="12.8" cy="12.4" r=".4" style="fill:#864198"/><circle cx="11.6" cy="12.4" r=".4" style="fill:#864198"/></g></svg>